<svg width="27" height="26" viewBox="0 0 27 26" fill="none" xmlns="http://www.w3.org/2000/svg">
<path d="M17.2915 8.12533L21.0831 4.33366M23.2498 2.16699L21.0831 4.33366L23.2498 2.16699ZM12.839 12.5778C13.3983 13.1297 13.843 13.7869 14.1474 14.5113C14.4517 15.2358 14.6098 16.0134 14.6124 16.7992C14.6151 17.585 14.4622 18.3636 14.1627 19.0901C13.8632 19.8166 13.423 20.4767 12.8673 21.0323C12.3116 21.588 11.6516 22.0282 10.9251 22.3277C10.1985 22.6272 9.41998 22.7801 8.63416 22.7774C7.84835 22.7748 7.07081 22.6168 6.34633 22.3124C5.62185 22.008 4.96473 21.5634 4.41281 21.004C3.32745 19.8802 2.72688 18.3752 2.74046 16.8129C2.75404 15.2506 3.38067 13.7562 4.48539 12.6515C5.59011 11.5468 7.08454 10.9201 8.64679 10.9066C10.209 10.893 11.7141 11.4936 12.8379 12.5789L12.839 12.5778ZM12.839 12.5778L17.2915 8.12533L12.839 12.5778ZM17.2915 8.12533L20.5415 11.3753L24.3331 7.58366L21.0831 4.33366L17.2915 8.12533Z" stroke="#7A9CA5" stroke-width="2" stroke-linecap="round" stroke-linejoin="round"/>
</svg>
